<svg xmlns="http://www.w3.org/2000/svg" viewBox="0 0 1894 441" width="1894" height="441"><g transform="translate(86.1,220.5)"><g transform="translate(50.28,42.55) scale(0.243125)"><circle cx="346.1" cy="-175.0" r="539.9" fill="none" stroke="#173A5E" stroke-width="47.3"/><path d="M313.6 0.0Q304.08000000000004 0.0 282.24 -21.840000000000003Q260.40000000000003 -43.68000000000001 229.60000000000002 -84.28Q198.8 -124.88000000000001 160.72000000000003 -180.32000000000002L187.60000000000002 -188.72000000000003Q235.76000000000002 -120.96000000000001 269.36 -80.92Q302.96000000000004 -40.88 328.72 -23.8Q354.48 -6.720000000000001 378.56000000000006 -6.720000000000001Q380.24 -6.720000000000001 380.24 -3.3600000000000003Q380.24 0.0 378.56000000000006 0.0Q353.36 0.0 337.40000000000003 0.0Q321.44000000000005 0.0 313.6 0.0ZM167.44000000000003 -351.68Q210.56000000000003 -351.68 233.24 -330.96000000000004Q255.92000000000002 -310.24 255.92000000000002 -277.20000000000005Q255.92000000000002 -247.52 238.56 -223.44Q221.20000000000002 -199.36 192.36 -185.36Q163.52 -171.36 128.8 -171.36Q123.76 -171.36 117.04 -171.92000000000002Q110.32000000000001 -172.48000000000002 104.72000000000001 -173.04000000000002V-45.36000000000001Q104.72000000000001 -29.120000000000005 108.08000000000001 -20.720000000000002Q111.44000000000001 -12.32 122.36000000000001 -9.52Q133.28 -6.720000000000001 154.56 -6.720000000000001Q156.24 -6.720000000000001 156.24 -3.3600000000000003Q156.24 0.0 154.56 0.0Q141.12 0.0 125.16000000000001 -0.56Q109.20000000000002 -1.12 89.60000000000001 -1.12Q71.68 -1.12 54.88000000000001 -0.56Q38.080000000000005 0.0 24.64 0.0Q23.520000000000003 0.0 23.520000000000003 -3.3600000000000003Q23.520000000000003 -6.720000000000001 24.64 -6.720000000000001Q45.92 -6.720000000000001 56.84 -9.52Q67.76 -12.32 71.68 -20.720000000000002Q75.60000000000001 -29.120000000000005 75.60000000000001 -45.36000000000001V-304.64000000000004Q75.60000000000001 -320.88000000000005 71.96000000000001 -329.0Q68.32000000000001 -337.12 57.68000000000001 -340.20000000000005Q47.040000000000006 -343.28000000000003 25.76 -343.28000000000003Q24.080000000000002 -343.28000000000003 24.080000000000002 -346.64000000000004Q24.080000000000002 -350.00000000000006 25.76 -350.00000000000006Q38.64 -350.00000000000006 55.160000000000004 -349.1600000000001Q71.68 -348.32000000000005 89.60000000000001 -348.32000000000005Q106.96000000000001 -348.32000000000005 129.92000000000002 -350.0Q152.88000000000002 -351.68 167.44000000000003 -351.68ZM224.56000000000003 -262.08000000000004Q224.56000000000003 -292.32000000000005 214.76000000000002 -310.24Q204.96 -328.16 186.76 -336.28000000000003Q168.56 -344.40000000000003 142.8 -344.40000000000003Q122.64000000000001 -344.40000000000003 113.68 -337.12Q104.72000000000001 -329.84000000000003 104.72000000000001 -303.52000000000004V-185.92000000000002Q112.56000000000002 -185.36 121.80000000000001 -184.8Q131.04000000000002 -184.24 138.32000000000002 -184.24Q186.48000000000002 -184.24 205.52000000000004 -204.40000000000003Q224.56000000000003 -224.56000000000003 224.56000000000003 -262.08000000000004Z M551.6 -192.64000000000001 557.76 -197.68Q589.6800000000001 -197.68 613.76 -185.36Q637.84 -173.04000000000002 651.0 -151.76000000000002Q664.1600000000001 -130.48000000000002 664.1600000000001 -103.60000000000001Q664.1600000000001 -73.36000000000001 650.1600000000001 -49.28000000000001Q636.1600000000001 -25.200000000000003 611.8000000000001 -11.48Q587.44 2.24 557.2 2.24Q538.72 2.24 516.32 0.56Q493.9200000000001 -1.12 474.32000000000005 -1.12Q456.40000000000003 -1.12 439.6 -0.56Q422.8 0.0 409.36 0.0Q408.24 0.0 408.24 -3.3600000000000003Q408.24 -6.720000000000001 409.36 -6.720000000000001Q430.64000000000004 -6.720000000000001 441.56000000000006 -9.52Q452.48 -12.32 456.40000000000003 -20.720000000000002Q460.32000000000005 -29.120000000000005 460.32000000000005 -45.36000000000001V-304.64000000000004Q460.32000000000005 -320.88000000000005 456.68000000000006 -329.0Q453.04 -337.12 442.40000000000003 -340.20000000000005Q431.76000000000005 -343.28000000000003 410.48 -343.28000000000003Q408.8 -343.28000000000003 408.8 -346.64000000000004Q408.8 -350.00000000000006 410.48 -350.00000000000006Q423.36 -350.00000000000006 439.88 -349.1600000000001Q456.40000000000003 -348.32000000000005 474.32000000000005 -348.32000000000005Q488.88000000000005 -348.32000000000005 508.20000000000005 -350.0Q527.52 -351.68 539.84 -351.68Q572.8800000000001 -351.68 592.7600000000001 -341.32000000000005Q612.6400000000001 -330.96000000000004 621.6000000000001 -314.16Q630.5600000000001 -297.36 630.5600000000001 -277.20000000000005Q630.5600000000001 -245.28000000000003 607.8800000000001 -223.44000000000003Q585.2 -201.60000000000002 551.6 -192.64000000000001ZM526.96 -344.40000000000003Q513.52 -344.40000000000003 505.12 -342.44000000000005Q496.72 -340.48 493.08000000000004 -332.08000000000004Q489.44000000000005 -323.68 489.44000000000005 -303.52000000000004V-193.76000000000002L472.64000000000004 -198.24Q490.56000000000006 -197.12 502.32000000000005 -196.84000000000003Q514.08 -196.56000000000003 515.76 -196.56000000000003Q562.24 -196.56000000000003 581.28 -218.68Q600.32 -240.8 600.32 -273.28000000000003Q600.32 -292.32000000000005 593.32 -308.56000000000006Q586.32 -324.8 570.3600000000001 -334.6Q554.4000000000001 -344.40000000000003 526.96 -344.40000000000003ZM549.36 -6.720000000000001Q591.9200000000001 -6.720000000000001 611.8000000000001 -28.840000000000003Q631.6800000000001 -50.96000000000001 631.6800000000001 -89.60000000000001Q631.6800000000001 -131.60000000000002 605.9200000000001 -158.48000000000002Q580.1600000000001 -185.36 535.36 -185.92000000000002Q519.6800000000001 -186.48000000000002 504.56000000000006 -185.92000000000002Q489.44000000000005 -185.36 474.32000000000005 -183.12L489.44000000000005 -189.28000000000003V-45.36000000000001Q489.44000000000005 -31.360000000000003 493.9200000000001 -22.680000000000003Q498.40000000000003 -14.000000000000002 511.2800000000001 -10.360000000000001Q524.1600000000001 -6.720000000000001 549.36 -6.720000000000001Z" fill="#173A5E"/></g><path d="M353.18800000000005 -56.54 384.86800000000005 -11.0H398.72800000000007L365.72800000000007 -56.54ZM336.68800000000005 -103.4V-11.0H347.908V-103.4ZM342.89200000000005 -93.5H361.76800000000003Q367.708 -93.5 372.26200000000006 -91.388Q376.81600000000003 -89.27600000000001 379.39000000000004 -85.316Q381.96400000000006 -81.35600000000001 381.96400000000006 -75.68Q381.96400000000006 -70.004 379.39000000000004 -66.04400000000001Q376.81600000000003 -62.084 372.26200000000006 -59.972Q367.708 -57.86 361.76800000000003 -57.86H342.89200000000005V-47.96H361.76800000000003Q370.744 -47.96 377.80600000000004 -51.326Q384.86800000000005 -54.692 389.02600000000007 -60.962Q393.184 -67.232 393.184 -75.68Q393.184 -84.26 389.02600000000007 -90.464Q384.86800000000005 -96.668 377.80600000000004 -100.034Q370.744 -103.4 361.76800000000003 -103.4H342.89200000000005Z M435.68800000000005 -57.2Q435.68800000000005 -67.628 440.2420000000001 -75.81200000000001Q444.79600000000005 -83.99600000000001 452.716 -88.748Q460.636 -93.5 470.668 -93.5Q480.832 -93.5 488.68600000000004 -88.748Q496.54 -83.99600000000001 501.09400000000005 -75.81200000000001Q505.648 -67.628 505.648 -57.2Q505.648 -46.772 501.09400000000005 -38.588Q496.54 -30.404 488.68600000000004 -25.652Q480.832 -20.9 470.668 -20.9Q460.636 -20.9 452.716 -25.652Q444.79600000000005 -30.404 440.2420000000001 -38.588Q435.68800000000005 -46.772 435.68800000000005 -57.2ZM423.808 -57.2Q423.808 -47.168 427.30600000000004 -38.456Q430.80400000000003 -29.744 437.14 -23.342Q443.476 -16.94 452.05600000000004 -13.31Q460.636 -9.68 470.668 -9.68Q480.832 -9.68 489.346 -13.31Q497.86 -16.94 504.196 -23.342Q510.53200000000004 -29.744 514.03 -38.456Q517.528 -47.168 517.528 -57.2Q517.528 -67.364 514.03 -76.01Q510.53200000000004 -84.656 504.196 -91.058Q497.86 -97.46000000000001 489.346 -101.09Q480.832 -104.72 470.668 -104.72Q460.636 -104.72 452.05600000000004 -101.09Q443.476 -97.46000000000001 437.14 -91.058Q430.80400000000003 -84.656 427.30600000000004 -76.01Q423.808 -67.364 423.808 -57.2Z M598.048 -103.4 578.38 -69.212 559.1080000000001 -103.4H545.908L572.7040000000001 -59.444L542.6080000000001 -11.0H555.808L578.248 -49.676L600.028 -11.0H613.2280000000001L583.924 -59.444L611.248 -103.4Z M652.432 -38.72H701.272L697.312 -49.28H656.392ZM676.588 -82.544 692.428 -45.32 693.484 -42.68 706.948 -11.0H719.488L676.588 -108.02000000000001L633.688 -11.0H646.2280000000001L659.956 -43.472L661.0120000000001 -45.848Z M819.148 -103.4V-34.628L749.188 -108.02000000000001V-11.0H760.408V-79.772L830.368 -6.38V-103.4Z M939.928 -103.4V-34.628L869.968 -108.02000000000001V-11.0H881.188V-79.772L951.148 -6.38V-103.4Z M996.9520000000001 -11.0H1043.548V-21.560000000000002H996.9520000000001ZM996.9520000000001 -92.84H1043.548V-103.4H996.9520000000001ZM996.9520000000001 -55.88H1040.9080000000001V-66.44H996.9520000000001ZM990.748 -103.4V-11.0H1001.9680000000001V-103.4Z M1148.752 -59.84H1163.668Q1171.984 -59.84 1178.1219999999998 -62.21600000000001Q1184.26 -64.59200000000001 1187.692 -69.212Q1191.124 -73.832 1191.124 -80.3Q1191.124 -88.22 1187.692 -93.30199999999999Q1184.26 -98.384 1178.1219999999998 -100.892Q1171.984 -103.4 1163.668 -103.4H1139.908V-11.0H1164.988Q1173.964 -11.0 1181.0259999999998 -13.97Q1188.088 -16.94 1192.246 -22.946Q1196.404 -28.952 1196.404 -38.06Q1196.404 -44.396 1194.028 -49.016000000000005Q1191.652 -53.636 1187.362 -56.606Q1183.072 -59.576 1177.396 -61.028000000000006Q1171.72 -62.480000000000004 1164.988 -62.480000000000004H1148.752V-56.276H1164.988Q1169.4759999999999 -56.276 1173.172 -55.154Q1176.868 -54.032000000000004 1179.574 -51.788000000000004Q1182.28 -49.544000000000004 1183.732 -46.244Q1185.184 -42.944 1185.184 -38.72Q1185.184 -33.044 1182.6100000000001 -29.084Q1180.036 -25.124000000000002 1175.482 -23.012Q1170.9279999999999 -20.9 1164.988 -20.9H1151.128V-93.5H1163.668Q1170.664 -93.5 1175.284 -89.87Q1179.904 -86.24000000000001 1179.904 -79.64Q1179.904 -75.284 1177.792 -72.248Q1175.68 -69.212 1171.984 -67.62800000000001Q1168.288 -66.04400000000001 1163.668 -66.04400000000001H1148.752Z M1238.644 -57.2Q1238.644 -67.628 1243.1979999999999 -75.81200000000001Q1247.752 -83.99600000000001 1255.672 -88.748Q1263.5919999999999 -93.5 1273.624 -93.5Q1283.788 -93.5 1291.6419999999998 -88.748Q1299.4959999999999 -83.99600000000001 1304.0499999999997 -75.81200000000001Q1308.6039999999998 -67.628 1308.6039999999998 -57.2Q1308.6039999999998 -46.772 1304.0499999999997 -38.588Q1299.4959999999999 -30.404 1291.6419999999998 -25.652Q1283.788 -20.9 1273.624 -20.9Q1263.5919999999999 -20.9 1255.672 -25.652Q1247.752 -30.404 1243.1979999999999 -38.588Q1238.644 -46.772 1238.644 -57.2ZM1226.764 -57.2Q1226.764 -47.168 1230.262 -38.456Q1233.76 -29.744 1240.096 -23.342Q1246.432 -16.94 1255.012 -13.31Q1263.5919999999999 -9.68 1273.624 -9.68Q1283.788 -9.68 1292.3020000000001 -13.31Q1300.816 -16.94 1307.152 -23.342Q1313.4879999999998 -29.744 1316.9859999999999 -38.456Q1320.484 -47.168 1320.484 -57.2Q1320.484 -67.364 1316.9859999999999 -76.01Q1313.4879999999998 -84.656 1307.152 -91.058Q1300.816 -97.46000000000001 1292.3020000000001 -101.09Q1283.788 -104.72 1273.624 -104.72Q1263.5919999999999 -104.72 1255.012 -101.09Q1246.432 -97.46000000000001 1240.096 -91.058Q1233.76 -84.656 1230.262 -76.01Q1226.764 -67.364 1226.764 -57.2Z M1354.804 -103.4V-11.0H1402.324V-21.560000000000002H1366.0240000000001V-103.4Z M1432.6840000000002 -103.4V-11.0H1443.9040000000002V-103.4ZM1460.4040000000002 -11.0Q1473.8680000000002 -11.0 1484.2960000000003 -16.808Q1494.7240000000002 -22.616 1500.6640000000002 -32.978Q1506.6040000000003 -43.34 1506.6040000000003 -57.2Q1506.6040000000003 -71.06 1500.6640000000002 -81.422Q1494.7240000000002 -91.784 1484.2960000000003 -97.59200000000001Q1473.8680000000002 -103.4 1460.4040000000002 -103.4H1438.8880000000001V-92.18H1460.4040000000002Q1468.1920000000002 -92.18 1474.6600000000003 -89.738Q1481.1280000000002 -87.296 1485.748 -82.742Q1490.3680000000002 -78.188 1492.8760000000002 -71.72Q1495.3840000000002 -65.25200000000001 1495.3840000000002 -57.2Q1495.3840000000002 -49.148 1492.8760000000002 -42.68000000000001Q1490.3680000000002 -36.212 1485.748 -31.658Q1481.1280000000002 -27.104 1474.6600000000003 -24.662Q1468.1920000000002 -22.22 1460.4040000000002 -22.22H1438.8880000000001V-11.0Z M1540.2640000000001 -103.4V-41.36Q1540.2640000000001 -34.496 1542.442 -28.688000000000002Q1544.6200000000001 -22.880000000000003 1548.7780000000002 -18.656000000000002Q1552.9360000000001 -14.432 1558.7440000000001 -12.056000000000001Q1564.5520000000001 -9.68 1571.68 -9.68Q1578.808 -9.68 1584.616 -12.056000000000001Q1590.424 -14.432 1594.5819999999999 -18.656000000000002Q1598.74 -22.880000000000003 1600.9180000000001 -28.688000000000002Q1603.096 -34.496 1603.096 -41.36V-103.4H1591.876V-41.36Q1591.876 -31.856 1586.728 -26.048000000000002Q1581.58 -20.240000000000002 1571.68 -20.240000000000002Q1561.78 -20.240000000000002 1556.632 -26.048000000000002Q1551.484 -31.856 1551.484 -41.36V-103.4Z M1648.6360000000002 -57.2Q1648.6360000000002 -68.024 1653.4540000000002 -76.142Q1658.2720000000002 -84.26 1666.0600000000002 -88.88Q1673.8480000000002 -93.5 1682.9560000000001 -93.5Q1689.556 -93.5 1695.034 -91.78399999999999Q1700.5120000000002 -90.068 1705.0 -86.96600000000001Q1709.488 -83.864 1712.6560000000002 -79.772V-94.556Q1706.8480000000002 -99.70400000000001 1699.9840000000002 -102.212Q1693.1200000000001 -104.72 1682.9560000000001 -104.72Q1673.3200000000002 -104.72 1664.938 -101.22200000000001Q1656.556 -97.724 1650.22 -91.322Q1643.884 -84.92 1640.3200000000002 -76.208Q1636.756 -67.49600000000001 1636.756 -57.2Q1636.756 -46.904 1640.3200000000002 -38.192Q1643.884 -29.48 1650.22 -23.078000000000003Q1656.556 -16.676000000000002 1664.938 -13.178Q1673.3200000000002 -9.68 1682.9560000000001 -9.68Q1693.1200000000001 -9.68 1699.9840000000002 -12.187999999999999Q1706.8480000000002 -14.696 1712.6560000000002 -19.844V-34.628Q1709.488 -30.536 1705.0 -27.434Q1700.5120000000002 -24.332 1695.034 -22.616Q1689.556 -20.9 1682.9560000000001 -20.9Q1673.8480000000002 -20.9 1666.0600000000002 -25.52Q1658.2720000000002 -30.14 1653.4540000000002 -38.324Q1648.6360000000002 -46.508 1648.6360000000002 -57.2Z" fill="#173A5E"/><path d="M336.71200000000005 88.28H363.35200000000003L361.19200000000006 82.52000000000001H338.87200000000007ZM349.88800000000003 64.376 358.528 84.68 359.10400000000004 86.12 366.44800000000004 103.4H373.288L349.88800000000003 50.48000000000001L326.48800000000006 103.4H333.32800000000003L340.81600000000003 85.688L341.39200000000005 84.39200000000001Z M392.00800000000004 53.00000000000001V86.84Q392.00800000000004 90.584 393.196 93.75200000000001Q394.38400000000007 96.92 396.65200000000004 99.224Q398.9200000000001 101.528 402.0880000000001 102.82400000000001Q405.2560000000001 104.12 409.14400000000006 104.12Q413.03200000000004 104.12 416.20000000000005 102.82400000000001Q419.36800000000005 101.528 421.6360000000001 99.224Q423.90400000000005 96.92 425.0920000000001 93.75200000000001Q426.2800000000001 90.584 426.2800000000001 86.84V53.00000000000001H420.1600000000001V86.84Q420.1600000000001 92.024 417.3520000000001 95.19200000000001Q414.54400000000004 98.36 409.14400000000006 98.36Q403.7440000000001 98.36 400.93600000000004 95.19200000000001Q398.12800000000004 92.024 398.12800000000004 86.84V53.00000000000001Z M450.40000000000003 53.00000000000001V103.4H456.52000000000004V53.00000000000001ZM465.52000000000004 103.4Q472.86400000000003 103.4 478.552 100.232Q484.24 97.06400000000001 487.48 91.412Q490.72 85.76 490.72 78.2Q490.72 70.64000000000001 487.48 64.98800000000001Q484.24 59.336000000000006 478.552 56.168000000000006Q472.86400000000003 53.00000000000001 465.52000000000004 53.00000000000001H453.78400000000005V59.12000000000001H465.52000000000004Q469.76800000000003 59.12000000000001 473.29600000000005 60.45200000000001Q476.82400000000007 61.784000000000006 479.34400000000005 64.268Q481.86400000000003 66.75200000000001 483.232 70.28Q484.6 73.808 484.6 78.2Q484.6 82.59200000000001 483.232 86.12Q481.86400000000003 89.64800000000001 479.34400000000005 92.132Q476.82400000000007 94.61600000000001 473.29600000000005 95.94800000000001Q469.76800000000003 97.28 465.52000000000004 97.28H453.78400000000005V103.4Z M512.32 53.00000000000001V103.4H518.44V53.00000000000001Z M546.5200000000001 78.2Q546.5200000000001 72.512 549.0040000000001 68.048Q551.488 63.58400000000001 555.808 60.992000000000004Q560.128 58.400000000000006 565.6000000000001 58.400000000000006Q571.1440000000001 58.400000000000006 575.4280000000001 60.992000000000004Q579.7120000000001 63.58400000000001 582.1960000000001 68.048Q584.6800000000001 72.512 584.6800000000001 78.2Q584.6800000000001 83.888 582.1960000000001 88.352Q579.7120000000001 92.816 575.4280000000001 95.408Q571.1440000000001 98.0 565.6000000000001 98.0Q560.128 98.0 555.808 95.408Q551.488 92.816 549.0040000000001 88.352Q546.5200000000001 83.888 546.5200000000001 78.2ZM540.0400000000001 78.2Q540.0400000000001 83.67200000000001 541.9480000000001 88.424Q543.8560000000001 93.176 547.3120000000001 96.668Q550.768 100.16000000000001 555.4480000000001 102.14000000000001Q560.128 104.12 565.6000000000001 104.12Q571.1440000000001 104.12 575.7880000000001 102.14000000000001Q580.4320000000001 100.16000000000001 583.8880000000001 96.668Q587.344 93.176 589.2520000000001 88.424Q591.1600000000001 83.67200000000001 591.1600000000001 78.2Q591.1600000000001 72.656 589.2520000000001 67.94000000000001Q587.344 63.22400000000001 583.8880000000001 59.73200000000001Q580.4320000000001 56.24000000000001 575.7880000000001 54.260000000000005Q571.1440000000001 52.28000000000001 565.6000000000001 52.28000000000001Q560.128 52.28000000000001 555.4480000000001 54.260000000000005Q550.768 56.24000000000001 547.3120000000001 59.73200000000001Q543.8560000000001 63.22400000000001 541.9480000000001 67.94000000000001Q540.0400000000001 72.656 540.0400000000001 78.2Z M612.76 53.00000000000001V103.4H638.68V97.64H618.88V53.00000000000001Z M661.72 78.2Q661.72 72.512 664.204 68.048Q666.688 63.58400000000001 671.008 60.992000000000004Q675.328 58.400000000000006 680.8 58.400000000000006Q686.344 58.400000000000006 690.628 60.992000000000004Q694.912 63.58400000000001 697.396 68.048Q699.88 72.512 699.88 78.2Q699.88 83.888 697.396 88.352Q694.912 92.816 690.628 95.408Q686.344 98.0 680.8 98.0Q675.328 98.0 671.008 95.408Q666.688 92.816 664.204 88.352Q661.72 83.888 661.72 78.2ZM655.24 78.2Q655.24 83.67200000000001 657.148 88.424Q659.056 93.176 662.512 96.668Q665.968 100.16000000000001 670.6479999999999 102.14000000000001Q675.328 104.12 680.8 104.12Q686.344 104.12 690.988 102.14000000000001Q695.6320000000001 100.16000000000001 699.088 96.668Q702.544 93.176 704.452 88.424Q706.36 83.67200000000001 706.36 78.2Q706.36 72.656 704.452 67.94000000000001Q702.544 63.22400000000001 699.088 59.73200000000001Q695.6320000000001 56.24000000000001 690.988 54.260000000000005Q686.344 52.28000000000001 680.8 52.28000000000001Q675.328 52.28000000000001 670.6479999999999 54.260000000000005Q665.968 56.24000000000001 662.512 59.73200000000001Q659.056 63.22400000000001 657.148 67.94000000000001Q655.24 72.656 655.24 78.2Z M751.36 83.60000000000001H768.1360000000001Q767.488 86.552 766.0840000000001 89.144Q764.6800000000001 91.736 762.52 93.75200000000001Q760.36 95.768 757.3720000000001 96.884Q754.384 98.0 750.6400000000001 98.0Q745.312 98.0 740.992 95.48Q736.672 92.96000000000001 734.116 88.49600000000001Q731.5600000000001 84.03200000000001 731.5600000000001 78.2Q731.5600000000001 72.296 734.116 67.86800000000001Q736.672 63.44000000000001 740.992 60.92000000000001Q745.312 58.400000000000006 750.6400000000001 58.400000000000006Q756.4000000000001 58.400000000000006 760.6480000000001 60.668000000000006Q764.8960000000001 62.93600000000001 767.272 66.96800000000002L771.5920000000001 63.00800000000001Q769.432 59.48000000000001 766.3 57.10400000000001Q763.168 54.72800000000001 759.244 53.504000000000005Q755.32 52.28000000000001 750.6400000000001 52.28000000000001Q745.168 52.28000000000001 740.488 54.18800000000001Q735.808 56.09600000000001 732.3520000000001 59.58800000000001Q728.8960000000001 63.080000000000005 726.988 67.83200000000001Q725.08 72.584 725.08 78.2Q725.08 83.816 726.988 88.56800000000001Q728.8960000000001 93.32000000000001 732.3520000000001 96.81200000000001Q735.808 100.304 740.488 102.212Q745.168 104.12 750.6400000000001 104.12Q756.4000000000001 104.12 760.9000000000001 101.99600000000001Q765.4000000000001 99.872 768.4960000000001 96.2Q771.5920000000001 92.528 773.176 87.81200000000001Q774.76 83.096 774.76 77.84H751.36Z M796.72 53.00000000000001V103.4H802.84V53.00000000000001Z M829.1919999999999 88.13600000000001 824.2959999999999 91.44800000000001Q825.952 94.76 828.5799999999999 97.67600000000002Q831.208 100.59200000000001 834.6999999999999 102.35600000000001Q838.1919999999999 104.12 842.2959999999999 104.12Q845.3199999999999 104.12 848.0919999999999 103.112Q850.8639999999999 102.104 853.06 100.232Q855.256 98.36 856.516 95.696Q857.776 93.03200000000001 857.776 89.72Q857.776 86.26400000000001 856.5519999999999 83.78Q855.328 81.296 853.42 79.53200000000001Q851.512 77.768 849.28 76.61600000000001Q847.048 75.46400000000001 845.0319999999999 74.744Q840.64 73.232 838.084 71.684Q835.5279999999999 70.13600000000001 834.4479999999999 68.37200000000001Q833.3679999999999 66.608 833.3679999999999 64.52000000000001Q833.3679999999999 62.07200000000001 835.24 60.09200000000001Q837.112 58.11200000000001 841.2159999999999 58.11200000000001Q844.1679999999999 58.11200000000001 846.2199999999999 59.26400000000001Q848.2719999999999 60.41600000000001 849.712 62.21600000000001Q851.1519999999999 64.016 852.088 65.888L857.3439999999999 62.86400000000001Q856.1199999999999 60.20000000000001 853.9599999999999 57.78800000000001Q851.8 55.37600000000001 848.74 53.82800000000001Q845.68 52.28000000000001 841.5759999999999 52.28000000000001Q837.328 52.28000000000001 834.016 53.97200000000001Q830.704 55.66400000000001 828.8319999999999 58.616000000000014Q826.9599999999999 61.56800000000001 826.9599999999999 65.31200000000001Q826.9599999999999 68.768 828.2919999999999 71.144Q829.6239999999999 73.52000000000001 831.712 75.14000000000001Q833.8 76.76 836.1039999999999 77.804Q838.4079999999999 78.84800000000001 840.28 79.49600000000001Q843.16 80.504 845.7159999999999 81.76400000000001Q848.2719999999999 83.024 849.856 85.04Q851.4399999999999 87.05600000000001 851.4399999999999 90.44000000000001Q851.4399999999999 93.896 848.992 96.128Q846.544 98.36 842.512 98.36Q839.4879999999999 98.36 837.112 97.064Q834.736 95.768 832.828 93.464Q830.92 91.16000000000001 829.1919999999999 88.13600000000001Z M874.696 58.76000000000001H887.656V103.4H893.776V58.76000000000001H906.736V53.00000000000001H874.696Z M929.5600000000001 103.4H954.976V97.64H929.5600000000001ZM929.5600000000001 58.76000000000001H954.976V53.00000000000001H929.5600000000001ZM929.5600000000001 78.92000000000002H953.5360000000001V73.16000000000001H929.5600000000001ZM926.176 53.00000000000001V103.4H932.296V53.00000000000001Z" fill="#3E64AE"/></g></svg>