<svg xmlns="http://www.w3.org/2000/svg" viewBox="0 0 1483 1142" width="1483" height="1142"><g transform="translate(102.3,421.9)"><g transform="translate(439.15,101.16) scale(0.578064)"><circle cx="346.1" cy="-175.0" r="539.9" fill="none" stroke="#F6F3EC" stroke-width="23.4"/><path d="M313.6 0.0Q304.08000000000004 0.0 282.24 -21.840000000000003Q260.40000000000003 -43.68000000000001 229.60000000000002 -84.28Q198.8 -124.88000000000001 160.72000000000003 -180.32000000000002L187.60000000000002 -188.72000000000003Q235.76000000000002 -120.96000000000001 269.36 -80.92Q302.96000000000004 -40.88 328.72 -23.8Q354.48 -6.720000000000001 378.56000000000006 -6.720000000000001Q380.24 -6.720000000000001 380.24 -3.3600000000000003Q380.24 0.0 378.56000000000006 0.0Q353.36 0.0 337.40000000000003 0.0Q321.44000000000005 0.0 313.6 0.0ZM167.44000000000003 -351.68Q210.56000000000003 -351.68 233.24 -330.96000000000004Q255.92000000000002 -310.24 255.92000000000002 -277.20000000000005Q255.92000000000002 -247.52 238.56 -223.44Q221.20000000000002 -199.36 192.36 -185.36Q163.52 -171.36 128.8 -171.36Q123.76 -171.36 117.04 -171.92000000000002Q110.32000000000001 -172.48000000000002 104.72000000000001 -173.04000000000002V-45.36000000000001Q104.72000000000001 -29.120000000000005 108.08000000000001 -20.720000000000002Q111.44000000000001 -12.32 122.36000000000001 -9.52Q133.28 -6.720000000000001 154.56 -6.720000000000001Q156.24 -6.720000000000001 156.24 -3.3600000000000003Q156.24 0.0 154.56 0.0Q141.12 0.0 125.16000000000001 -0.56Q109.20000000000002 -1.12 89.60000000000001 -1.12Q71.68 -1.12 54.88000000000001 -0.56Q38.080000000000005 0.0 24.64 0.0Q23.520000000000003 0.0 23.520000000000003 -3.3600000000000003Q23.520000000000003 -6.720000000000001 24.64 -6.720000000000001Q45.92 -6.720000000000001 56.84 -9.52Q67.76 -12.32 71.68 -20.720000000000002Q75.60000000000001 -29.120000000000005 75.60000000000001 -45.36000000000001V-304.64000000000004Q75.60000000000001 -320.88000000000005 71.96000000000001 -329.0Q68.32000000000001 -337.12 57.68000000000001 -340.20000000000005Q47.040000000000006 -343.28000000000003 25.76 -343.28000000000003Q24.080000000000002 -343.28000000000003 24.080000000000002 -346.64000000000004Q24.080000000000002 -350.00000000000006 25.76 -350.00000000000006Q38.64 -350.00000000000006 55.160000000000004 -349.1600000000001Q71.68 -348.32000000000005 89.60000000000001 -348.32000000000005Q106.96000000000001 -348.32000000000005 129.92000000000002 -350.0Q152.88000000000002 -351.68 167.44000000000003 -351.68ZM224.56000000000003 -262.08000000000004Q224.56000000000003 -292.32000000000005 214.76000000000002 -310.24Q204.96 -328.16 186.76 -336.28000000000003Q168.56 -344.40000000000003 142.8 -344.40000000000003Q122.64000000000001 -344.40000000000003 113.68 -337.12Q104.72000000000001 -329.84000000000003 104.72000000000001 -303.52000000000004V-185.92000000000002Q112.56000000000002 -185.36 121.80000000000001 -184.8Q131.04000000000002 -184.24 138.32000000000002 -184.24Q186.48000000000002 -184.24 205.52000000000004 -204.40000000000003Q224.56000000000003 -224.56000000000003 224.56000000000003 -262.08000000000004Z M551.6 -192.64000000000001 557.76 -197.68Q589.6800000000001 -197.68 613.76 -185.36Q637.84 -173.04000000000002 651.0 -151.76000000000002Q664.1600000000001 -130.48000000000002 664.1600000000001 -103.60000000000001Q664.1600000000001 -73.36000000000001 650.1600000000001 -49.28000000000001Q636.1600000000001 -25.200000000000003 611.8000000000001 -11.48Q587.44 2.24 557.2 2.24Q538.72 2.24 516.32 0.56Q493.9200000000001 -1.12 474.32000000000005 -1.12Q456.40000000000003 -1.12 439.6 -0.56Q422.8 0.0 409.36 0.0Q408.24 0.0 408.24 -3.3600000000000003Q408.24 -6.720000000000001 409.36 -6.720000000000001Q430.64000000000004 -6.720000000000001 441.56000000000006 -9.52Q452.48 -12.32 456.40000000000003 -20.720000000000002Q460.32000000000005 -29.120000000000005 460.32000000000005 -45.36000000000001V-304.64000000000004Q460.32000000000005 -320.88000000000005 456.68000000000006 -329.0Q453.04 -337.12 442.40000000000003 -340.20000000000005Q431.76000000000005 -343.28000000000003 410.48 -343.28000000000003Q408.8 -343.28000000000003 408.8 -346.64000000000004Q408.8 -350.00000000000006 410.48 -350.00000000000006Q423.36 -350.00000000000006 439.88 -349.1600000000001Q456.40000000000003 -348.32000000000005 474.32000000000005 -348.32000000000005Q488.88000000000005 -348.32000000000005 508.20000000000005 -350.0Q527.52 -351.68 539.84 -351.68Q572.8800000000001 -351.68 592.7600000000001 -341.32000000000005Q612.6400000000001 -330.96000000000004 621.6000000000001 -314.16Q630.5600000000001 -297.36 630.5600000000001 -277.20000000000005Q630.5600000000001 -245.28000000000003 607.8800000000001 -223.44000000000003Q585.2 -201.60000000000002 551.6 -192.64000000000001ZM526.96 -344.40000000000003Q513.52 -344.40000000000003 505.12 -342.44000000000005Q496.72 -340.48 493.08000000000004 -332.08000000000004Q489.44000000000005 -323.68 489.44000000000005 -303.52000000000004V-193.76000000000002L472.64000000000004 -198.24Q490.56000000000006 -197.12 502.32000000000005 -196.84000000000003Q514.08 -196.56000000000003 515.76 -196.56000000000003Q562.24 -196.56000000000003 581.28 -218.68Q600.32 -240.8 600.32 -273.28000000000003Q600.32 -292.32000000000005 593.32 -308.56000000000006Q586.32 -324.8 570.3600000000001 -334.6Q554.4000000000001 -344.40000000000003 526.96 -344.40000000000003ZM549.36 -6.720000000000001Q591.9200000000001 -6.720000000000001 611.8000000000001 -28.840000000000003Q631.6800000000001 -50.96000000000001 631.6800000000001 -89.60000000000001Q631.6800000000001 -131.60000000000002 605.9200000000001 -158.48000000000002Q580.1600000000001 -185.36 535.36 -185.92000000000002Q519.6800000000001 -186.48000000000002 504.56000000000006 -185.92000000000002Q489.44000000000005 -185.36 474.32000000000005 -183.12L489.44000000000005 -189.28000000000003V-45.36000000000001Q489.44000000000005 -31.360000000000003 493.9200000000001 -22.680000000000003Q498.40000000000003 -14.000000000000002 511.2800000000001 -10.360000000000001Q524.1600000000001 -6.720000000000001 549.36 -6.720000000000001Z" fill="#F6F3EC"/></g><path d="M24.189999999999998 444.093 52.51 484.803H64.89999999999999L35.4 444.093ZM9.44 402.203V484.803H19.47V402.203ZM14.985999999999999 411.053H31.86Q37.169999999999995 411.053 41.241 412.94100000000003Q45.312 414.829 47.613 418.369Q49.913999999999994 421.909 49.913999999999994 426.983Q49.913999999999994 432.057 47.613 435.597Q45.312 439.137 41.241 441.025Q37.169999999999995 442.913 31.86 442.913H14.985999999999999V451.763H31.86Q39.884 451.763 46.197 448.754Q52.51 445.745 56.227 440.14Q59.943999999999996 434.53499999999997 59.943999999999996 426.983Q59.943999999999996 419.313 56.227 413.767Q52.51 408.221 46.197 405.212Q39.884 402.203 31.86 402.203H14.985999999999999Z M100.3 443.503Q100.3 434.181 104.371 426.865Q108.442 419.549 115.52199999999999 415.301Q122.60199999999999 411.053 131.57 411.053Q140.656 411.053 147.677 415.301Q154.69799999999998 419.549 158.76899999999998 426.865Q162.83999999999997 434.181 162.83999999999997 443.503Q162.83999999999997 452.825 158.76899999999998 460.14099999999996Q154.69799999999998 467.457 147.677 471.705Q140.656 475.953 131.57 475.953Q122.60199999999999 475.953 115.52199999999999 471.705Q108.442 467.457 104.371 460.14099999999996Q100.3 452.825 100.3 443.503ZM89.67999999999999 443.503Q89.67999999999999 452.471 92.80699999999999 460.259Q95.934 468.047 101.598 473.77Q107.262 479.493 114.93199999999999 482.738Q122.60199999999999 485.983 131.57 485.983Q140.656 485.983 148.267 482.738Q155.878 479.493 161.54199999999997 473.77Q167.206 468.047 170.33299999999997 460.259Q173.45999999999998 452.471 173.45999999999998 443.503Q173.45999999999998 434.41700000000003 170.33299999999997 426.688Q167.206 418.959 161.54199999999997 413.236Q155.878 407.51300000000003 148.267 404.26800000000003Q140.656 401.023 131.57 401.023Q122.60199999999999 401.023 114.93199999999999 404.26800000000003Q107.262 407.51300000000003 101.598 413.236Q95.934 418.959 92.80699999999999 426.688Q89.67999999999999 434.41700000000003 89.67999999999999 443.503Z M247.8 402.203 230.21800000000002 432.765 212.99 402.203H201.19L225.144 441.497L198.24 484.803H210.04L230.1 450.229L249.57 484.803H261.37L235.174 441.497L259.6 402.203Z M298.776 460.023H342.43600000000004L338.896 450.58299999999997H302.31600000000003ZM320.37 420.847 334.53 454.123 335.474 456.483 347.51 484.803H358.72L320.37 398.073L282.02 484.803H293.23L305.502 455.775L306.446 453.651Z M450.16999999999996 402.203V463.681L387.63 398.073V484.803H397.65999999999997V423.325L460.2 488.933V402.203Z M560.5 402.203V463.681L497.96 398.073V484.803H507.99V423.325L570.53 488.933V402.203Z M613.836 484.803H655.49V475.363H613.836ZM613.836 411.64300000000003H655.49V402.203H613.836ZM613.836 444.683H653.13V435.243H613.836ZM608.2900000000001 402.203V484.803H618.32V402.203Z M754.256 441.14300000000003H767.5899999999999Q775.024 441.14300000000003 780.511 439.019Q785.9979999999999 436.895 789.066 432.765Q792.134 428.635 792.134 422.853Q792.134 415.773 789.066 411.23Q785.9979999999999 406.687 780.511 404.445Q775.024 402.203 767.5899999999999 402.203H746.35V484.803H768.77Q776.794 484.803 783.107 482.148Q789.42 479.493 793.137 474.124Q796.8539999999999 468.755 796.8539999999999 460.613Q796.8539999999999 454.949 794.73 450.819Q792.606 446.689 788.771 444.034Q784.9359999999999 441.379 779.862 440.081Q774.788 438.783 768.77 438.783H754.256V444.329H768.77Q772.7819999999999 444.329 776.086 445.332Q779.39 446.335 781.809 448.341Q784.228 450.347 785.526 453.297Q786.824 456.247 786.824 460.023Q786.824 465.097 784.5229999999999 468.637Q782.222 472.177 778.151 474.065Q774.0799999999999 475.953 768.77 475.953H756.38V411.053H767.5899999999999Q773.8439999999999 411.053 777.9739999999999 414.298Q782.1039999999999 417.543 782.1039999999999 423.443Q782.1039999999999 427.337 780.2159999999999 430.051Q778.328 432.765 775.0239999999999 434.181Q771.7199999999999 435.597 767.5899999999999 435.597H754.256Z M836.9739999999999 443.503Q836.9739999999999 434.181 841.0449999999998 426.865Q845.1159999999999 419.549 852.1959999999999 415.301Q859.2759999999998 411.053 868.2439999999999 411.053Q877.3299999999999 411.053 884.3509999999999 415.301Q891.3719999999998 419.549 895.4429999999999 426.865Q899.5139999999999 434.181 899.5139999999999 443.503Q899.5139999999999 452.825 895.4429999999999 460.14099999999996Q891.3719999999998 467.457 884.3509999999999 471.705Q877.3299999999999 475.953 868.2439999999999 475.953Q859.2759999999998 475.953 852.1959999999999 471.705Q845.1159999999999 467.457 841.0449999999998 460.14099999999996Q836.9739999999999 452.825 836.9739999999999 443.503ZM826.3539999999999 443.503Q826.3539999999999 452.471 829.481 460.259Q832.608 468.047 838.2719999999999 473.77Q843.9359999999999 479.493 851.6059999999999 482.738Q859.2759999999998 485.983 868.2439999999999 485.983Q877.3299999999999 485.983 884.9409999999999 482.738Q892.5519999999999 479.493 898.2159999999999 473.77Q903.8799999999999 468.047 907.0069999999998 460.259Q910.1339999999999 452.471 910.1339999999999 443.503Q910.1339999999999 434.41700000000003 907.0069999999998 426.688Q903.8799999999999 418.959 898.2159999999999 413.236Q892.5519999999999 407.51300000000003 884.9409999999999 404.26800000000003Q877.3299999999999 401.023 868.2439999999999 401.023Q859.2759999999998 401.023 851.6059999999999 404.26800000000003Q843.9359999999999 407.51300000000003 838.2719999999999 413.236Q832.608 418.959 829.481 426.688Q826.3539999999999 434.41700000000003 826.3539999999999 443.503Z M943.174 402.203V484.803H985.6539999999999V475.363H953.204V402.203Z M1015.154 402.203V484.803H1025.184V402.203ZM1039.934 484.803Q1051.97 484.803 1061.292 479.611Q1070.614 474.419 1075.924 465.15599999999995Q1081.234 455.893 1081.234 443.503Q1081.234 431.113 1075.924 421.85Q1070.614 412.587 1061.292 407.395Q1051.97 402.203 1039.934 402.203H1020.6999999999999V412.233H1039.934Q1046.896 412.233 1052.6779999999999 414.416Q1058.46 416.599 1062.5900000000001 420.66999999999996Q1066.72 424.741 1068.962 430.523Q1071.204 436.305 1071.204 443.503Q1071.204 450.701 1068.962 456.483Q1066.72 462.265 1062.5900000000001 466.336Q1058.46 470.407 1052.6779999999999 472.59000000000003Q1046.896 474.773 1039.934 474.773H1020.6999999999999V484.803Z M1113.6839999999997 402.203V457.663Q1113.6839999999997 463.799 1115.6309999999999 468.991Q1117.5779999999997 474.183 1121.2949999999996 477.959Q1125.0119999999997 481.735 1130.2039999999997 483.85900000000004Q1135.3959999999997 485.983 1141.7679999999998 485.983Q1148.1399999999999 485.983 1153.3319999999999 483.85900000000004Q1158.524 481.735 1162.241 477.959Q1165.9579999999999 474.183 1167.9049999999997 468.991Q1169.8519999999999 463.799 1169.8519999999999 457.663V402.203H1159.822V457.663Q1159.822 466.159 1155.2199999999998 471.351Q1150.618 476.543 1141.7679999999998 476.543Q1132.918 476.543 1128.3159999999998 471.351Q1123.714 466.159 1123.714 457.663V402.203Z M1212.9219999999998 443.503Q1212.9219999999998 433.827 1217.2289999999998 426.57Q1221.5359999999998 419.313 1228.4979999999998 415.183Q1235.4599999999998 411.053 1243.6019999999999 411.053Q1249.502 411.053 1254.399 412.587Q1259.2959999999998 414.121 1263.308 416.894Q1267.32 419.66700000000003 1270.1519999999998 423.325V410.109Q1264.9599999999998 405.507 1258.8239999999998 403.265Q1252.6879999999999 401.023 1243.6019999999999 401.023Q1234.9879999999998 401.023 1227.495 404.15Q1220.002 407.277 1214.338 413.0Q1208.674 418.723 1205.4879999999998 426.51099999999997Q1202.302 434.299 1202.302 443.503Q1202.302 452.707 1205.4879999999998 460.495Q1208.674 468.283 1214.338 474.006Q1220.002 479.729 1227.495 482.856Q1234.9879999999998 485.983 1243.6019999999999 485.983Q1252.6879999999999 485.983 1258.8239999999998 483.741Q1264.9599999999998 481.499 1270.1519999999998 476.897V463.681Q1267.32 467.339 1263.308 470.11199999999997Q1259.2959999999998 472.885 1254.399 474.419Q1249.502 475.953 1243.6019999999999 475.953Q1235.4599999999998 475.953 1228.4979999999998 471.823Q1221.5359999999998 467.693 1217.2289999999998 460.37699999999995Q1212.9219999999998 453.061 1212.9219999999998 443.503Z" fill="#F6F3EC"/><path d="M366.8859999999999 604.1629999999999H390.5659999999999L388.6459999999999 599.043H368.80599999999987ZM378.5979999999999 582.915 386.2779999999999 600.963 386.7899999999999 602.2429999999999 393.31799999999987 617.603H399.3979999999999L378.5979999999999 570.563L357.7979999999999 617.603H363.8779999999999L370.5339999999999 601.8589999999999L371.0459999999999 600.707Z M416.0379999999999 572.803V602.8829999999999Q416.0379999999999 606.2109999999999 417.0939999999999 609.0269999999999Q418.14999999999986 611.843 420.1659999999999 613.891Q422.1819999999999 615.939 424.99799999999993 617.0909999999999Q427.8139999999999 618.2429999999999 431.26999999999987 618.2429999999999Q434.7259999999999 618.2429999999999 437.5419999999999 617.0909999999999Q440.3579999999999 615.939 442.3739999999999 613.891Q444.3899999999999 611.843 445.4459999999999 609.0269999999999Q446.5019999999999 606.2109999999999 446.5019999999999 602.8829999999999V572.803H441.0619999999999V602.8829999999999Q441.0619999999999 607.491 438.5659999999999 610.307Q436.0699999999999 613.1229999999999 431.26999999999987 613.1229999999999Q426.4699999999999 613.1229999999999 423.97399999999993 610.307Q421.4779999999999 607.491 421.4779999999999 602.8829999999999V572.803Z M467.9419999999999 572.803V617.603H473.3819999999999V572.803ZM481.3819999999999 617.603Q487.9099999999999 617.603 492.9659999999999 614.787Q498.0219999999999 611.971 500.9019999999999 606.947Q503.78199999999987 601.923 503.78199999999987 595.203Q503.78199999999987 588.483 500.9019999999999 583.459Q498.0219999999999 578.435 492.9659999999999 575.6189999999999Q487.9099999999999 572.803 481.3819999999999 572.803H470.9499999999999V578.2429999999999H481.3819999999999Q485.1579999999999 578.2429999999999 488.29399999999987 579.4269999999999Q491.4299999999999 580.611 493.6699999999999 582.819Q495.9099999999999 585.0269999999999 497.12599999999986 588.163Q498.34199999999987 591.299 498.34199999999987 595.203Q498.34199999999987 599.107 497.12599999999986 602.2429999999999Q495.9099999999999 605.3789999999999 493.6699999999999 607.587Q491.4299999999999 609.795 488.29399999999987 610.9789999999999Q485.1579999999999 612.1629999999999 481.3819999999999 612.1629999999999H470.9499999999999V617.603Z M522.9819999999999 572.803V617.603H528.4219999999998V572.803Z M553.382 595.203Q553.382 590.1469999999999 555.5899999999999 586.1789999999999Q557.7979999999999 582.2109999999999 561.6379999999999 579.9069999999999Q565.478 577.603 570.3419999999999 577.603Q575.2699999999999 577.603 579.0779999999999 579.9069999999999Q582.8859999999999 582.2109999999999 585.0939999999998 586.1789999999999Q587.3019999999999 590.1469999999999 587.3019999999999 595.203Q587.3019999999999 600.2589999999999 585.0939999999998 604.2269999999999Q582.8859999999999 608.1949999999999 579.0779999999999 610.499Q575.2699999999999 612.803 570.3419999999999 612.803Q565.478 612.803 561.6379999999999 610.499Q557.7979999999999 608.1949999999999 555.5899999999999 604.2269999999999Q553.382 600.2589999999999 553.382 595.203ZM547.6219999999998 595.203Q547.6219999999998 600.067 549.3179999999999 604.2909999999999Q551.0139999999999 608.515 554.0859999999999 611.6189999999999Q557.1579999999999 614.723 561.318 616.483Q565.478 618.2429999999999 570.3419999999999 618.2429999999999Q575.2699999999999 618.2429999999999 579.3979999999999 616.483Q583.5259999999998 614.723 586.5979999999998 611.6189999999999Q589.6699999999998 608.515 591.3659999999999 604.2909999999999Q593.0619999999999 600.067 593.0619999999999 595.203Q593.0619999999999 590.275 591.3659999999999 586.083Q589.6699999999998 581.891 586.5979999999998 578.787Q583.5259999999998 575.683 579.3979999999999 573.923Q575.2699999999999 572.163 570.3419999999999 572.163Q565.478 572.163 561.318 573.923Q557.1579999999999 575.683 554.0859999999999 578.787Q551.0139999999999 581.891 549.3179999999999 586.083Q547.6219999999998 590.275 547.6219999999998 595.203Z M612.262 572.803V617.603H635.3019999999999V612.483H617.7019999999999V572.803Z M655.7819999999999 595.203Q655.7819999999999 590.1469999999999 657.9899999999999 586.1789999999999Q660.1979999999999 582.2109999999999 664.0379999999999 579.9069999999999Q667.8779999999999 577.603 672.7419999999998 577.603Q677.6699999999998 577.603 681.4779999999998 579.9069999999999Q685.2859999999998 582.2109999999999 687.4939999999999 586.1789999999999Q689.7019999999999 590.1469999999999 689.7019999999999 595.203Q689.7019999999999 600.2589999999999 687.4939999999999 604.2269999999999Q685.2859999999998 608.1949999999999 681.4779999999998 610.499Q677.6699999999998 612.803 672.7419999999998 612.803Q667.8779999999999 612.803 664.0379999999999 610.499Q660.1979999999999 608.1949999999999 657.9899999999999 604.2269999999999Q655.7819999999999 600.2589999999999 655.7819999999999 595.203ZM650.0219999999998 595.203Q650.0219999999998 600.067 651.7179999999998 604.2909999999999Q653.4139999999999 608.515 656.4859999999999 611.6189999999999Q659.5579999999999 614.723 663.7179999999998 616.483Q667.8779999999999 618.2429999999999 672.7419999999998 618.2429999999999Q677.6699999999998 618.2429999999999 681.7979999999999 616.483Q685.9259999999999 614.723 688.9979999999999 611.6189999999999Q692.0699999999999 608.515 693.7659999999998 604.2909999999999Q695.4619999999999 600.067 695.4619999999999 595.203Q695.4619999999999 590.275 693.7659999999998 586.083Q692.0699999999999 581.891 688.9979999999999 578.787Q685.9259999999999 575.683 681.7979999999999 573.923Q677.6699999999998 572.163 672.7419999999998 572.163Q667.8779999999999 572.163 663.7179999999998 573.923Q659.5579999999999 575.683 656.4859999999999 578.787Q653.4139999999999 581.891 651.7179999999998 586.083Q650.0219999999998 590.275 650.0219999999998 595.203Z M735.4619999999999 600.0029999999999H750.3739999999999Q749.7979999999999 602.627 748.55 604.9309999999999Q747.3019999999999 607.2349999999999 745.3819999999998 609.0269999999999Q743.4619999999999 610.819 740.8059999999998 611.8109999999999Q738.1499999999999 612.803 734.8219999999999 612.803Q730.0859999999999 612.803 726.2459999999999 610.563Q722.406 608.323 720.134 604.355Q717.862 600.387 717.862 595.203Q717.862 589.9549999999999 720.134 586.019Q722.406 582.083 726.2459999999999 579.843Q730.0859999999999 577.603 734.8219999999999 577.603Q739.9419999999999 577.603 743.7179999999998 579.6189999999999Q747.4939999999999 581.635 749.6059999999999 585.2189999999999L753.4459999999999 581.699Q751.526 578.563 748.742 576.451Q745.958 574.3389999999999 742.47 573.251Q738.982 572.163 734.8219999999999 572.163Q729.958 572.163 725.798 573.8589999999999Q721.6379999999999 575.555 718.5659999999999 578.6589999999999Q715.4939999999999 581.7629999999999 713.7979999999999 585.9869999999999Q712.1019999999999 590.2109999999999 712.1019999999999 595.203Q712.1019999999999 600.1949999999999 713.7979999999999 604.4189999999999Q715.4939999999999 608.6429999999999 718.5659999999999 611.747Q721.6379999999999 614.851 725.798 616.547Q729.958 618.2429999999999 734.8219999999999 618.2429999999999Q739.9419999999999 618.2429999999999 743.9419999999999 616.355Q747.9419999999999 614.467 750.694 611.203Q753.4459999999999 607.939 754.8539999999999 603.747Q756.262 599.555 756.262 594.8829999999999H735.4619999999999Z M775.7819999999999 572.803V617.603H781.2219999999999V572.803Z M804.6459999999998 604.035 800.2939999999999 606.9789999999999Q801.7659999999998 609.923 804.1019999999999 612.515Q806.4379999999999 615.107 809.5419999999999 616.675Q812.6459999999998 618.2429999999999 816.2939999999999 618.2429999999999Q818.9819999999999 618.2429999999999 821.4459999999999 617.347Q823.9099999999999 616.4509999999999 825.8619999999999 614.7869999999999Q827.8139999999999 613.1229999999999 828.9339999999999 610.7549999999999Q830.0539999999999 608.387 830.0539999999999 605.443Q830.0539999999999 602.371 828.9659999999999 600.163Q827.8779999999998 597.9549999999999 826.1819999999998 596.387Q824.4859999999999 594.819 822.5019999999998 593.795Q820.5179999999998 592.771 818.7259999999999 592.131Q814.8219999999999 590.7869999999999 812.55 589.411Q810.2779999999999 588.035 809.3179999999999 586.467Q808.3579999999998 584.899 808.3579999999998 583.0429999999999Q808.3579999999998 580.867 810.0219999999998 579.107Q811.6859999999998 577.347 815.3339999999998 577.347Q817.9579999999999 577.347 819.7819999999999 578.371Q821.6059999999999 579.395 822.8859999999999 580.9949999999999Q824.1659999999998 582.5949999999999 824.9979999999998 584.2589999999999L829.6699999999998 581.5709999999999Q828.5819999999999 579.203 826.6619999999998 577.059Q824.7419999999998 574.915 822.0219999999999 573.539Q819.3019999999999 572.163 815.6539999999999 572.163Q811.8779999999998 572.163 808.9339999999999 573.6669999999999Q805.9899999999999 575.1709999999999 804.3259999999998 577.795Q802.6619999999998 580.419 802.6619999999998 583.747Q802.6619999999998 586.819 803.8459999999998 588.9309999999999Q805.0299999999999 591.0429999999999 806.8859999999999 592.483Q808.7419999999998 593.923 810.7899999999998 594.851Q812.8379999999999 595.779 814.5019999999998 596.3549999999999Q817.0619999999999 597.251 819.3339999999998 598.371Q821.6059999999999 599.491 823.0139999999999 601.2829999999999Q824.4219999999998 603.0749999999999 824.4219999999998 606.083Q824.4219999999998 609.155 822.2459999999999 611.1389999999999Q820.0699999999998 613.1229999999999 816.4859999999999 613.1229999999999Q813.7979999999999 613.1229999999999 811.6859999999999 611.971Q809.5739999999998 610.819 807.8779999999999 608.771Q806.1819999999999 606.723 804.6459999999998 604.035Z M845.0939999999999 577.923H856.6139999999999V617.603H862.054V577.923H873.574V572.803H845.0939999999999Z M893.862 617.603H916.454V612.483H893.862ZM893.862 577.923H916.454V572.803H893.862ZM893.862 595.843H915.174V590.723H893.862ZM890.8539999999999 572.803V617.603H896.2939999999999V572.803Z" fill="#3E64AE"/></g></svg>