<svg xmlns="http://www.w3.org/2000/svg" viewBox="0 0 1024 1024" width="1024" height="1024"><g transform="translate(217.15,661.09) scale(0.851968)"><circle cx="346.1" cy="-175.0" r="539.9" fill="none" stroke="#173A5E" stroke-width="26.0"/><path d="M313.6 0.0Q304.08000000000004 0.0 282.24 -21.840000000000003Q260.40000000000003 -43.68000000000001 229.60000000000002 -84.28Q198.8 -124.88000000000001 160.72000000000003 -180.32000000000002L187.60000000000002 -188.72000000000003Q235.76000000000002 -120.96000000000001 269.36 -80.92Q302.96000000000004 -40.88 328.72 -23.8Q354.48 -6.720000000000001 378.56000000000006 -6.720000000000001Q380.24 -6.720000000000001 380.24 -3.3600000000000003Q380.24 0.0 378.56000000000006 0.0Q353.36 0.0 337.40000000000003 0.0Q321.44000000000005 0.0 313.6 0.0ZM167.44000000000003 -351.68Q210.56000000000003 -351.68 233.24 -330.96000000000004Q255.92000000000002 -310.24 255.92000000000002 -277.20000000000005Q255.92000000000002 -247.52 238.56 -223.44Q221.20000000000002 -199.36 192.36 -185.36Q163.52 -171.36 128.8 -171.36Q123.76 -171.36 117.04 -171.92000000000002Q110.32000000000001 -172.48000000000002 104.72000000000001 -173.04000000000002V-45.36000000000001Q104.72000000000001 -29.120000000000005 108.08000000000001 -20.720000000000002Q111.44000000000001 -12.32 122.36000000000001 -9.52Q133.28 -6.720000000000001 154.56 -6.720000000000001Q156.24 -6.720000000000001 156.24 -3.3600000000000003Q156.24 0.0 154.56 0.0Q141.12 0.0 125.16000000000001 -0.56Q109.20000000000002 -1.12 89.60000000000001 -1.12Q71.68 -1.12 54.88000000000001 -0.56Q38.080000000000005 0.0 24.64 0.0Q23.520000000000003 0.0 23.520000000000003 -3.3600000000000003Q23.520000000000003 -6.720000000000001 24.64 -6.720000000000001Q45.92 -6.720000000000001 56.84 -9.52Q67.76 -12.32 71.68 -20.720000000000002Q75.60000000000001 -29.120000000000005 75.60000000000001 -45.36000000000001V-304.64000000000004Q75.60000000000001 -320.88000000000005 71.96000000000001 -329.0Q68.32000000000001 -337.12 57.68000000000001 -340.20000000000005Q47.040000000000006 -343.28000000000003 25.76 -343.28000000000003Q24.080000000000002 -343.28000000000003 24.080000000000002 -346.64000000000004Q24.080000000000002 -350.00000000000006 25.76 -350.00000000000006Q38.64 -350.00000000000006 55.160000000000004 -349.1600000000001Q71.68 -348.32000000000005 89.60000000000001 -348.32000000000005Q106.96000000000001 -348.32000000000005 129.92000000000002 -350.0Q152.88000000000002 -351.68 167.44000000000003 -351.68ZM224.56000000000003 -262.08000000000004Q224.56000000000003 -292.32000000000005 214.76000000000002 -310.24Q204.96 -328.16 186.76 -336.28000000000003Q168.56 -344.40000000000003 142.8 -344.40000000000003Q122.64000000000001 -344.40000000000003 113.68 -337.12Q104.72000000000001 -329.84000000000003 104.72000000000001 -303.52000000000004V-185.92000000000002Q112.56000000000002 -185.36 121.80000000000001 -184.8Q131.04000000000002 -184.24 138.32000000000002 -184.24Q186.48000000000002 -184.24 205.52000000000004 -204.40000000000003Q224.56000000000003 -224.56000000000003 224.56000000000003 -262.08000000000004Z M551.6 -192.64000000000001 557.76 -197.68Q589.6800000000001 -197.68 613.76 -185.36Q637.84 -173.04000000000002 651.0 -151.76000000000002Q664.1600000000001 -130.48000000000002 664.1600000000001 -103.60000000000001Q664.1600000000001 -73.36000000000001 650.1600000000001 -49.28000000000001Q636.1600000000001 -25.200000000000003 611.8000000000001 -11.48Q587.44 2.24 557.2 2.24Q538.72 2.24 516.32 0.56Q493.9200000000001 -1.12 474.32000000000005 -1.12Q456.40000000000003 -1.12 439.6 -0.56Q422.8 0.0 409.36 0.0Q408.24 0.0 408.24 -3.3600000000000003Q408.24 -6.720000000000001 409.36 -6.720000000000001Q430.64000000000004 -6.720000000000001 441.56000000000006 -9.52Q452.48 -12.32 456.40000000000003 -20.720000000000002Q460.32000000000005 -29.120000000000005 460.32000000000005 -45.36000000000001V-304.64000000000004Q460.32000000000005 -320.88000000000005 456.68000000000006 -329.0Q453.04 -337.12 442.40000000000003 -340.20000000000005Q431.76000000000005 -343.28000000000003 410.48 -343.28000000000003Q408.8 -343.28000000000003 408.8 -346.64000000000004Q408.8 -350.00000000000006 410.48 -350.00000000000006Q423.36 -350.00000000000006 439.88 -349.1600000000001Q456.40000000000003 -348.32000000000005 474.32000000000005 -348.32000000000005Q488.88000000000005 -348.32000000000005 508.20000000000005 -350.0Q527.52 -351.68 539.84 -351.68Q572.8800000000001 -351.68 592.7600000000001 -341.32000000000005Q612.6400000000001 -330.96000000000004 621.6000000000001 -314.16Q630.5600000000001 -297.36 630.5600000000001 -277.20000000000005Q630.5600000000001 -245.28000000000003 607.8800000000001 -223.44000000000003Q585.2 -201.60000000000002 551.6 -192.64000000000001ZM526.96 -344.40000000000003Q513.52 -344.40000000000003 505.12 -342.44000000000005Q496.72 -340.48 493.08000000000004 -332.08000000000004Q489.44000000000005 -323.68 489.44000000000005 -303.52000000000004V-193.76000000000002L472.64000000000004 -198.24Q490.56000000000006 -197.12 502.32000000000005 -196.84000000000003Q514.08 -196.56000000000003 515.76 -196.56000000000003Q562.24 -196.56000000000003 581.28 -218.68Q600.32 -240.8 600.32 -273.28000000000003Q600.32 -292.32000000000005 593.32 -308.56000000000006Q586.32 -324.8 570.3600000000001 -334.6Q554.4000000000001 -344.40000000000003 526.96 -344.40000000000003ZM549.36 -6.720000000000001Q591.9200000000001 -6.720000000000001 611.8000000000001 -28.840000000000003Q631.6800000000001 -50.96000000000001 631.6800000000001 -89.60000000000001Q631.6800000000001 -131.60000000000002 605.9200000000001 -158.48000000000002Q580.1600000000001 -185.36 535.36 -185.92000000000002Q519.6800000000001 -186.48000000000002 504.56000000000006 -185.92000000000002Q489.44000000000005 -185.36 474.32000000000005 -183.12L489.44000000000005 -189.28000000000003V-45.36000000000001Q489.44000000000005 -31.360000000000003 493.9200000000001 -22.680000000000003Q498.40000000000003 -14.000000000000002 511.2800000000001 -10.360000000000001Q524.1600000000001 -6.720000000000001 549.36 -6.720000000000001Z" fill="#173A5E"/></g></svg>